<?xml version="1.0" encoding="utf-8"?>
<!-- Generator: Adobe Illustrator 24.1.0, SVG Export Plug-In . SVG Version: 6.00 Build 0)  -->
<svg version="1.1" id="Capa_1" xmlns="http://www.w3.org/2000/svg" xmlns:xlink="http://www.w3.org/1999/xlink" x="0px" y="0px"
	 viewBox="0 0 512 512" style="enable-background:new 0 0 512 512;" xml:space="preserve">
<style type="text/css">
	.st0{fill:#004C9A;}
	.st1{fill:#004D99;} 
	#reloj {
        transform-origin: center center;
        animation: giro 3s linear infinite;
    }

    @keyframes giro {
        from {
            transform: rotate(0deg);
        }
        to {
            transform: rotate(360deg);
        }
    }
</style>
<g >
	<g id="reloj" transform="translate(250, 250)">
		<g >
			<path class="st0 rotate" d="M335,208.3c7.3-6.4,11.5-15.6,11.5-25.3v-51.2h19.1c5.3,0,9.6-4.3,9.6-9.6c0-5.3-4.3-9.6-9.6-9.6h-19.1
				H164.9h-19.1c-5.3,0-9.6,4.3-9.6,9.6c0,5.3,4.3,9.6,9.6,9.6h19.1v55.9c0,9.7,4.2,19,11.6,25.4l42.4,36.8c3.2,2.8,5,6.7,5,10.9
				c0,4.3-1.8,8.2-5,10.9l-42.4,36.7c-7.4,6.4-11.6,15.7-11.6,25.4v55.9h-19.1c-5.3,0-9.6,4.3-9.6,9.6c0,5.3,4.3,9.6,9.6,9.6h19.1
				h181.6h19.1c5.3,0,9.6-4.3,9.6-9.6c0-5.3-4.3-9.6-9.6-9.6h-19.1v-51.2c0-9.7-4.2-18.9-11.5-25.3l-47.6-41.6
				c-3.2-2.8-4.9-6.6-4.9-10.9s1.8-8.1,4.9-10.9L335,208.3z M274.8,286l47.6,41.6c3.2,2.8,4.9,6.7,4.9,10.9v51.2H184v-55.9
				c0-4.2,1.8-8.2,5-10.9l42.4-36.7c7.4-6.4,11.6-15.6,11.6-25.4c0-9.7-4.2-19-11.6-25.4L189,198.6c-3.2-2.8-5-6.8-5-11v-55.9h143.4
				V183c0,4.2-1.8,8.1-5,10.9l-47.6,41.6c-7.3,6.4-11.5,15.6-11.5,25.3C263.3,270.5,267.5,279.7,274.8,286L274.8,286z"/>
			<path class="st0" d="M317.8,183v-7.6c0-3-2.4-5.4-5.3-5.4H198.9c-2.9,0-5.3,2.4-5.3,5.3v12.4c0,2.8,1.2,5.5,3.3,7.3l41.8,36.2
				c5.2,4.5,9.4,10.1,11.7,16.5c5.4,15.5,0.7,31.9-11,42l-42.4,36.8c-2.1,1.9-3.3,4.5-3.3,7.3v42.1c0,2.4,1.9,4.3,4.3,4.3h115.7
				c2.3,0,4.3-1.9,4.3-4.3v-37.4c0-2.8-1.2-5.4-3.3-7.3l-46.8-41c-5.1-4.5-9.3-10-11.6-16.4c-5.5-15.4-0.8-31.8,10.8-42l47.6-41.6
				C316.6,188.4,317.8,185.7,317.8,183L317.8,183z"/>
		</g>
	</g>
	<g>
		<path class="st1" d="M451.8,117.8c-4.3-5.8-8.8-11.5-13.6-17l-14.9,13.1c4.4,5,8.6,10.2,12.5,15.6L451.8,117.8z"/>
		<path class="st1" d="M456.3,163.7l17.9-8.7c-3.1-6.5-6.6-12.9-10.4-19.1l-17,10.2C450.2,151.8,453.4,157.8,456.3,163.7z"/>
		<path class="st1" d="M470.4,201l19.1-5.3c-1.9-7-4.2-13.9-6.8-20.7l-18.6,7C466.6,188.3,468.7,194.6,470.4,201z"/>
		<path class="st1" d="M477.6,240.3l19.8-1.8c-0.7-7.2-1.6-14.5-2.9-21.6l-19.5,3.6C476.1,227,477,233.7,477.6,240.3z"/>
		<path class="st1" d="M423.1,85.1c-5.2-5-10.8-9.8-16.4-14.3l-12.4,15.5c5.2,4.1,10.3,8.5,15.1,13.1L423.1,85.1z"/>
		<path class="st1" d="M309.4,24.2c-7-1.6-14.2-2.9-21.4-3.8L285.4,40c6.6,0.9,13.2,2.1,19.7,3.5L309.4,24.2z"/>
		<path class="st1" d="M389.1,58.1c-6-4-12.3-7.7-18.7-11.1L361,64.4c5.8,3.1,11.6,6.6,17.2,10.2L389.1,58.1z"/>
		<path class="st1" d="M498.4,260.7l0-0.5h-19.9l0,0.5c0,1.8,0,3.7-0.1,5.5c-0.1,0-0.2,0-0.3,0c-3,120.2-101.7,217.2-222.6,217.2
			c-122.8,0-222.7-99.9-222.7-222.7c0-119.4,94.5-217.2,212.6-222.5v0c1.6-0.1,3.3-0.1,5-0.2c1.7,0,3.4-0.1,5.1-0.1
			c0.1,0,0.2,0,0.3,0c0.7,0,1.4,0,2,0l0,0c2.6,0,5.1,0.1,7.6,0.2l0.8-19.8c-3.5-0.1-7-0.2-10.5-0.2c0,0,0,0,0,0c-0.1,0-0.2,0-0.3,0
			c0,0,0,0-0.1,0c-1.8,0-3.7,0-5.5,0.1c-1.7,0-3.5,0.1-5.2,0.2c-0.1,0-0.1,0-0.2,0v0C115.9,24.2,13,130.7,13,260.8
			c0,133.7,108.8,242.5,242.5,242.5c126.4,0,230.6-97.2,241.6-220.9l0.4,0C498.1,275.3,498.4,268,498.4,260.7z"/>
		<path class="st1" d="M350.8,37.5c-6.7-2.8-13.5-5.4-20.4-7.6l-6.1,18.9c6.3,2,12.6,4.4,18.7,7L350.8,37.5z"/>
	</g>
</g>
</svg>
