<?xml version="1.0" encoding="utf-8"?>
<!-- Generator: Adobe Illustrator 24.1.0, SVG Export Plug-In . SVG Version: 6.00 Build 0)  -->
<svg version="1.1" id="Layer_1" xmlns="http://www.w3.org/2000/svg" xmlns:xlink="http://www.w3.org/1999/xlink" x="0px" y="0px"
	 viewBox="0 0 512 512" style="enable-background:new 0 0 512 512;" xml:space="preserve">
<style type="text/css">
	.st0{fill:#0C3BA1;}
</style>
<path class="st0" d="M256,176c-35.3,0-64,28.7-64,64s28.7,64,64,64s64-28.7,64-64S291.3,176,256,176z M256,288
	c-26.5,0-48-21.5-48-48s21.5-48,48-48s48,21.5,48,48S282.5,288,256,288z"/>
<path class="st0" d="M147.4,369c8.3,10.3,12.8,23.2,12.6,36.4V496h16v-90.6c0.4-17-5.3-33.6-16-46.8L69.4,253
	c-7.3-8.9-7.3-21.6,0-30.5c2.9-3.6,7.2-5.7,11.8-5.8c4.6,0.2,8.8,2.3,11.8,5.8l71.2,80.6c42,50.5,117,57.5,167.5,15.5
	c5.6-4.7,10.8-9.9,15.5-15.5l72-81.3c5.3-6.5,14.9-7.4,21.4-2.1c0.8,0.6,1.5,1.4,2.1,2.1c7.3,8.9,7.3,21.6,0,30.5L352,358.6
	c-11,13.1-16.9,29.7-16.7,46.8V496h16v-90.6c-0.2-13.3,4.4-26.2,12.9-36.4l90.5-106.2c12.5-14.9,12.5-36.6,0-51.5
	c-10.9-13.1-30.3-15-43.5-4.1c-1.5,1.2-2.9,2.6-4.1,4.1l-72,81.2c-19.7,23.4-48.5,37.1-79,37.6c-30.9-0.3-60.1-14-80-37.6l-71.1-80
	c-5.9-7.1-14.7-11.3-24-11.3c-9.3,0-18.1,4.1-24,11.3c-12.4,14.9-12.4,36.5,0,51.4L147.4,369z"/>
<path class="st0" d="M215.4,108.4l-6.9,42.3c-0.5,4.4,2.6,8.4,7,8.9c1.7,0.2,3.3-0.1,4.8-0.9l35.7-19.4l35.7,19.8
	c1.2,0.6,2.5,1,3.8,1c1.7,0,3.3-0.5,4.6-1.4c2.6-1.8,3.8-4.9,3.3-8l-6.9-42.3l29.2-29.9c2-2.1,2.7-5.2,1.8-8c-1-2.8-3.4-4.9-6.4-5.4
	l-40-6.1l-17.9-38.2c-1.8-4-6.6-5.8-10.6-4c-1.8,0.8-3.2,2.2-4,4l-17.9,38.2l-40,6.1c-3,0.4-5.4,2.5-6.4,5.4c-0.9,2.8-0.2,5.9,1.8,8
	L215.4,108.4z M237.4,74.1c2.6-0.4,4.9-2.1,6-4.6L256,42.8l12.6,26.7c1.1,2.4,3.4,4.1,6,4.6l28.8,4.4l-21.1,21.6
	c-1.8,1.8-2.6,4.4-2.2,6.9l5,30.1l-25.2-13.9c-2.5-1.4-5.5-1.4-8,0L226.6,137L232,107c0.4-2.5-0.4-5.1-2.2-6.9l-21.1-21.6
	L237.4,74.1z"/>
<path class="st0" d="M99.9,153.3h18.9l11.4,16c1.5,2.1,3.9,3.3,6.5,3.4h1.4c3-0.5,5.5-2.7,6.3-5.7l5-17.4l17.4-5.5
	c4.2-1.2,6.7-5.7,5.5-9.9c-0.5-1.7-1.5-3.2-3-4.3l-16-11.4V99.6c-0.1-4.4-3.7-7.9-8.1-7.9c-1.6,0-3.3,0.6-4.6,1.5L126,104l-17.9-6.5
	c-4.2-1.5-8.7,0.7-10.2,4.8c-0.6,1.8-0.6,3.7,0,5.4L104,126l-10.4,14.6c-2.6,3.6-1.8,8.6,1.7,11.2C96.7,152.7,98.3,153.3,99.9,153.3
	L99.9,153.3z M120.8,124.6l-2.1-5.8l5.8,2.1c2.5,1,5.2,0.7,7.4-0.8l5.4-4.1v7.4c0,2.5,1.2,4.9,3.3,6.4l5.7,4.1l-5.8,1.7
	c-2.7,0.8-4.8,2.8-5.5,5.5l-1.7,5.8l-4.1-5.7c-1.5-2-3.9-3.3-6.4-3.3h-7.4l4.5-5.8C121.5,129.8,121.8,127,120.8,124.6z"/>
<path class="st0" d="M345.2,144l17.4,5l5.4,17.8c0.8,2.9,3.3,5.2,6.3,5.7h1.4c2.6,0,5-1.3,6.5-3.4l11.4-16h18.9
	c4.4-0.1,7.9-3.7,7.9-8.1c0-1.6-0.6-3.3-1.5-4.6L408,126l6.5-17.9c1.5-4.2-0.7-8.7-4.8-10.2c-1.8-0.6-3.7-0.6-5.4,0L386,104
	l-14.6-10.4c-3.6-2.6-8.6-1.8-11.2,1.7c-1,1.3-1.5,2.9-1.5,4.6v18.9l-16,11.4c-3.4,2.8-4,7.8-1.2,11.2
	C342.4,142.6,343.7,143.5,345.2,144L345.2,144z M371.1,129.1c2-1.5,3.3-3.9,3.3-6.4v-7.4l5.4,4.1c2.2,1.6,4.9,2,7.4,1l5.8-2.1
	l-2.1,5.8c-0.9,2.5-0.5,5.3,1,7.4l4.1,5.4h-7.4c-2.5,0-4.9,1.2-6.4,3.3l-4.1,5.7l-1.7-5.8c-0.8-2.7-2.8-4.8-5.5-5.5l-5.8-1.7
	L371.1,129.1z"/>
</svg>
