<?xml version="1.0" encoding="utf-8"?>
<!-- Generator: Adobe Illustrator 24.1.0, SVG Export Plug-In . SVG Version: 6.00 Build 0)  -->
<svg version="1.1" id="Capa_1" xmlns="http://www.w3.org/2000/svg" xmlns:xlink="http://www.w3.org/1999/xlink" x="0px" y="0px"
	 viewBox="0 0 477 477" style="enable-background:new 0 0 477 477;" xml:space="preserve">
<style type="text/css">
	.st0{fill:#0C3BA1;}
	
</style>
<g id="reloj_de_arena">
	<path class="st0" d="M313.4,204.6C322,197,327,186,327,174.5V149c8.8,0,16-7.2,16-16v-16c0-8.8-7.2-16-16-16H151
		c-8.8,0-16,7.2-16,16v16c0,8.8,7.2,16,16,16v25.5c0,11.5,5,22.5,13.7,30.1l50.3,44v8.7l-50.3,44C156,309,151,320,151,331.5V357
		c-8.8,0-16,7.2-16,16v16c0,8.8,7.2,16,16,16h176c8.8,0,16-7.2,16-16v-16c0-8.8-7.2-16-16-16v-25.5c0-11.5-5-22.5-13.7-30.1l-50.3-44
		v-8.7L313.4,204.6z M151,117h176v16H151V117z M167,149h144v25.5c0,5.2-1.7,10.4-4.9,14.5H172c-3.2-4.2-4.9-9.3-4.9-14.5V149z
		M327,389H151v-16h176V389z M252.5,269.4l50.3,44c5.2,4.6,8.2,11.1,8.2,18.1V357H167v-25.5c0-6.9,3-13.5,8.2-18.1l50.3-44
		c3.5-3,5.5-7.4,5.5-12v-8.7c0-4.6-2-9-5.5-12L189.5,205h99.1l-36.1,31.6c-3.5,3-5.5,7.4-5.5,12v8.7C247,262,249,266.4,252.5,269.4z"
		/>
	<path class="st0" d="M231,277h16v16h-16V277z"/>
	<path class="st0" d="M231,309h16v16h-16V309z"/>
</g>
<path class="st0" d="M447,253c0,112.5-89.5,204.7-202,207.9c-112.5,3.2-207.2-83.6-213.6-196C24.9,152.6,109.1,55.5,221.2,45.8
	L202,68.6l12.3,10.3l30.9-36.8c2.8-3.4,2.4-8.4-1-11.3L207.4,0l-10.3,12.3L218.2,30C97.8,41.3,8,146.1,15.5,266.9
	C23,387.7,125.1,480.7,246,476.9C366.9,473.1,463,374,463,253H447z"/>
<path class="st0" d="M434.1,180.7l15-5.5c-1.9-5.1-4-10.3-6.3-15.3l-14.6,6.7C430.3,171.1,432.3,175.9,434.1,180.7z"/>
<path class="st0" d="M341.5,53.8c-4.9-2.5-10-4.9-15-7l-6.3,14.7c4.7,2,9.4,4.2,14,6.6L341.5,53.8z"/>
<path class="st0" d="M446.7,240.7l16-0.9c-0.3-5.5-0.9-11.1-1.6-16.5l-15.9,2.1C445.9,230.5,446.3,235.6,446.7,240.7z"/>
<path class="st0" d="M442.6,210.2l15.7-3.3c-1.1-5.4-2.5-10.8-4-16.1l-15.4,4.4C440.3,200.2,441.5,205.2,442.6,210.2z"/>
<path class="st0" d="M404.5,126.9l12.7-9.7c-3.3-4.4-6.9-8.7-10.5-12.8l-12,10.6C398.1,118.9,401.4,122.9,404.5,126.9z"/>
<path class="st0" d="M421.3,152.7l14-7.7c-2.7-4.8-5.5-9.6-8.5-14.2l-13.4,8.7C416.1,143.8,418.8,148.2,421.3,152.7z"/>
<path class="st0" d="M311,40.8c-5.3-1.8-10.6-3.4-15.9-4.7l-4,15.5c4.9,1.3,9.8,2.7,14.8,4.4L311,40.8z"/>
<path class="st0" d="M278.9,32.5c-5.4-1-10.9-1.7-16.4-2.3l-1.7,15.9c5.1,0.5,10.2,1.2,15.2,2.2L278.9,32.5z"/>
<path class="st0" d="M369.8,71.1c-4.5-3.3-9.2-6.3-13.8-9.2l-8.4,13.6c4.3,2.6,8.6,5.5,12.8,8.5L369.8,71.1z"/>
<path class="st0" d="M395.2,92.4c-3.9-3.8-8.1-7.6-12.3-11.1l-10.3,12.2c3.9,3.3,7.8,6.8,11.4,10.3L395.2,92.4z"/>
</svg>
